<svg width="462" height="588" fill="none" xmlns="http://www.w3.org/2000/svg"><path fill="#6070FF" d="M161.185 47.586l20.042 17.28 3.09-3.586L164.278 44z"/><ellipse cx="166.304" cy="59.212" rx="5.5" ry="5" transform="rotate(52.97 166.304 59.212)" fill="#CBCDFF"/><path fill="#EBEBFF" d="M225.824 549l62.493 26.966-4.824 11.18L221 560.18z"/><circle cx="281" cy="563.096" r="10" fill="#6070FF"/><path d="M368.907 465.5a15.052 15.052 0 00-12.659-24.684 15.047 15.047 0 00-13.858 13.674l6.451.573a8.578 8.578 0 017.894-7.79 8.573 8.573 0 018.975 6.517 8.578 8.578 0 01-1.763 7.546l4.96 4.164z" fill="#EBEBFF"/><path d="M352.497 429a12.068 12.068 0 0011.218 12.868 12.068 12.068 0 0012.868-11.218L352.497 429z" fill="#6070FF"/><path fill="#EBEBFF" d="M0 37.487L36.023 0l6.706 6.444L6.706 43.932z"/><path d="M22.19 24.642a19.252 19.252 0 1035.411 15.12l-35.41-15.12z" fill="#6070FF"/><circle cx="255.5" cy="13.501" r="7" fill="#fff" stroke="#CBCDFF"/><circle cx="337.5" cy="216.501" r="5" fill="#fff" stroke="#CBCDFF"/><circle cx="94.5" cy="548.5" r="7" fill="#fff" stroke="#CBCDFF"/><path d="M455.241 74.97a52.5 52.5 0 10-68.485 73.087l9.787-20.361a29.908 29.908 0 01-8.868-47.408 29.91 29.91 0 0147.884 5.77l19.682-11.087z" fill="#6070FF"/><path fill="#EBEBFF" d="M328 61.79L410.775 14l11.01 19.072-82.774 47.79z"/></svg>