<svg width="75" height="18" viewBox="0 0 75 18" fill="none" xmlns="http://www.w3.org/2000/svg">
                            <path
                                d="M14.7121 0.364V13H11.6341V5.422L8.80813 13H6.32413L3.48013 5.404V13H0.402133V0.364H4.03813L7.58413 9.112L11.0941 0.364H14.7121ZM27.1856 2.956L20.8856 17.77H17.5736L19.8776 12.658L15.7916 2.956H19.2296L21.5516 9.238L23.8556 2.956H27.1856ZM35.1911 10.624H39.2231V13H32.1131V0.364H35.1911V10.624ZM45.2632 13.144C44.2792 13.144 43.3912 12.934 42.5992 12.514C41.8192 12.094 41.2012 11.494 40.7452 10.714C40.3012 9.934 40.0792 9.022 40.0792 7.978C40.0792 6.946 40.3072 6.04 40.7632 5.26C41.2192 4.468 41.8432 3.862 42.6352 3.442C43.4272 3.022 44.3152 2.812 45.2992 2.812C46.2832 2.812 47.1712 3.022 47.9632 3.442C48.7552 3.862 49.3792 4.468 49.8352 5.26C50.2912 6.04 50.5192 6.946 50.5192 7.978C50.5192 9.01 50.2852 9.922 49.8172 10.714C49.3612 11.494 48.7312 12.094 47.9272 12.514C47.1352 12.934 46.2472 13.144 45.2632 13.144ZM45.2632 10.48C45.8512 10.48 46.3492 10.264 46.7572 9.832C47.1772 9.4 47.3872 8.782 47.3872 7.978C47.3872 7.174 47.1832 6.556 46.7752 6.124C46.3792 5.692 45.8872 5.476 45.2992 5.476C44.6992 5.476 44.2012 5.692 43.8052 6.124C43.4092 6.544 43.2112 7.162 43.2112 7.978C43.2112 8.782 43.4032 9.4 43.7872 9.832C44.1832 10.264 44.6752 10.48 45.2632 10.48ZM55.9681 2.812C56.6761 2.812 57.2941 2.956 57.8221 3.244C58.3621 3.532 58.7761 3.91 59.0641 4.378V2.956H62.1421V12.982C62.1421 13.906 61.9561 14.74 61.5841 15.484C61.2241 16.24 60.6661 16.84 59.9101 17.284C59.1661 17.728 58.2361 17.95 57.1201 17.95C55.6321 17.95 54.4261 17.596 53.5021 16.888C52.5781 16.192 52.0501 15.244 51.9181 14.044H54.9601C55.0561 14.428 55.2841 14.728 55.6441 14.944C56.0041 15.172 56.4481 15.286 56.9761 15.286C57.6121 15.286 58.1161 15.1 58.4881 14.728C58.8721 14.368 59.0641 13.786 59.0641 12.982V11.56C58.7641 12.028 58.3501 12.412 57.8221 12.712C57.2941 13 56.6761 13.144 55.9681 13.144C55.1401 13.144 54.3901 12.934 53.7181 12.514C53.0461 12.082 52.5121 11.476 52.1161 10.696C51.7321 9.904 51.5401 8.992 51.5401 7.96C51.5401 6.928 51.7321 6.022 52.1161 5.242C52.5121 4.462 53.0461 3.862 53.7181 3.442C54.3901 3.022 55.1401 2.812 55.9681 2.812ZM59.0641 7.978C59.0641 7.21 58.8481 6.604 58.4161 6.16C57.9961 5.716 57.4801 5.494 56.8681 5.494C56.2561 5.494 55.7341 5.716 55.3021 6.16C54.8821 6.592 54.6721 7.192 54.6721 7.96C54.6721 8.728 54.8821 9.34 55.3021 9.796C55.7341 10.24 56.2561 10.462 56.8681 10.462C57.4801 10.462 57.9961 10.24 58.4161 9.796C58.8481 9.352 59.0641 8.746 59.0641 7.978ZM68.9409 13.144C67.9569 13.144 67.0689 12.934 66.2769 12.514C65.4969 12.094 64.8789 11.494 64.4229 10.714C63.9789 9.934 63.7569 9.022 63.7569 7.978C63.7569 6.946 63.9849 6.04 64.4409 5.26C64.8969 4.468 65.5209 3.862 66.3129 3.442C67.1049 3.022 67.9929 2.812 68.9769 2.812C69.9609 2.812 70.8489 3.022 71.6409 3.442C72.4329 3.862 73.0569 4.468 73.5129 5.26C73.9689 6.04 74.1969 6.946 74.1969 7.978C74.1969 9.01 73.9629 9.922 73.4949 10.714C73.0389 11.494 72.4089 12.094 71.6049 12.514C70.8129 12.934 69.9249 13.144 68.9409 13.144ZM68.9409 10.48C69.5289 10.48 70.0269 10.264 70.4349 9.832C70.8549 9.4 71.0649 8.782 71.0649 7.978C71.0649 7.174 70.8609 6.556 70.4529 6.124C70.0569 5.692 69.5649 5.476 68.9769 5.476C68.3769 5.476 67.8789 5.692 67.4829 6.124C67.0869 6.544 66.8889 7.162 66.8889 7.978C66.8889 8.782 67.0809 9.4 67.4649 9.832C67.8609 10.264 68.3529 10.48 68.9409 10.48Z"
                                fill="#6070FF" />
                        </svg>